<svg width="24" height="24" viewBox="0 0 24 24" fill="none" xmlns="http://www.w3.org/2000/svg">
<path fill-rule="evenodd" clip-rule="evenodd" d="M7.5 3C7.22386 3 7 3.22386 7 3.5V5H6C4.89543 5 4 5.89543 4 7V19C4 20.1046 4.89543 21 6 21H18C19.1046 21 20 20.1046 20 19V7C20 5.89543 19.1046 5 18 5H17V3.5C17 3.22386 16.7761 3 16.5 3H15.5C15.2239 3 15 3.22386 15 3.5V5H9V3.5C9 3.22386 8.77614 3 8.5 3H7.5ZM7 9C6.44772 9 6 9.44772 6 10V18C6 18.5523 6.44772 19 7 19H17C17.5523 19 18 18.5523 18 18V10C18 9.44772 17.5523 9 17 9H7ZM8.5 11C8.22386 11 8 11.2239 8 11.5V14.5C8 14.7761 8.22386 15 8.5 15H11.5C11.7761 15 12 14.7761 12 14.5V11.5C12 11.2239 11.7761 11 11.5 11H8.5Z" fill="#222222"/>
</svg>
